<svg width="36" height="34" viewBox="0 0 36 34" fill="none" xmlns="http://www.w3.org/2000/svg">
<rect width="36" height="34" rx="5" fill="#FAEAEA"/>
<path d="M19.75 27.25V17.75H29.25V27.25H19.75Z" stroke="#FF9090" stroke-width="1.5"/>
<path d="M6.59699 7.19398C6.75619 7.19398 6.91041 7.1293 7.01986 7.01986C7.1293 6.91041 7.19398 6.75619 7.19398 6.59699C7.19398 6.44277 7.1293 6.28357 7.01986 6.17412C6.91041 6.06467 6.75619 6 6.59699 6C6.43779 6 6.28357 6.06467 6.17412 6.17412C6.06467 6.28357 6 6.43779 6 6.59699C6 6.75619 6.06467 6.91041 6.17412 7.01986C6.28854 7.1293 6.43779 7.19398 6.59699 7.19398Z" fill="#FF9090"/>
<path d="M11.5032 7.19398C11.8316 7.19398 12.1002 6.92533 12.1002 6.59699C12.1002 6.26864 11.8316 6 11.5032 6C11.1749 6 10.9062 6.26864 10.9062 6.59699C10.9062 6.92533 11.1699 7.19398 11.5032 7.19398Z" fill="#FF9090"/>
<path d="M9.04816 7.19398C9.3765 7.19398 9.64515 6.92533 9.64515 6.59699C9.64515 6.26864 9.3765 6 9.04816 6C8.71982 6 8.45117 6.26864 8.45117 6.59699C8.45117 6.92533 8.71982 7.19398 9.04816 7.19398Z" fill="#FF9090"/>
<path d="M13.9486 7.19398C14.2769 7.19398 14.5455 6.92533 14.5455 6.59699C14.5455 6.26864 14.2769 6 13.9486 6C13.6202 6 13.3516 6.26864 13.3516 6.59699C13.3516 6.92533 13.6202 7.19398 13.9486 7.19398Z" fill="#FF9090"/>
<path d="M16.4036 6C16.2494 6 16.0902 6.06467 15.9808 6.17412C15.8713 6.28357 15.8066 6.43779 15.8066 6.59699C15.8066 6.75619 15.8713 6.91041 15.9808 7.01986C16.0902 7.1293 16.2444 7.19398 16.4036 7.19398C16.5628 7.19398 16.717 7.1293 16.8265 7.01986C16.9359 6.91041 17.0006 6.75619 17.0006 6.59699C17.0006 6.43779 16.9359 6.28357 16.8265 6.17412C16.717 6.06467 16.5628 6 16.4036 6Z" fill="#FF9090"/>
<path d="M16.4036 13.3584C16.0753 13.3584 15.8066 13.627 15.8066 13.9554C15.8066 14.2837 16.0753 14.5524 16.4036 14.5524C16.732 14.5524 17.0006 14.2837 17.0006 13.9554C17.0006 13.6221 16.7369 13.3584 16.4036 13.3584Z" fill="#FF9090"/>
<path d="M16.4036 10.9053C16.0753 10.9053 15.8066 11.1739 15.8066 11.5023C15.8066 11.8306 16.0753 12.0993 16.4036 12.0993C16.732 12.0993 17.0006 11.8306 17.0006 11.5023C17.0006 11.1689 16.7369 10.9053 16.4036 10.9053Z" fill="#FF9090"/>
<path d="M16.4036 8.45312C16.0753 8.45312 15.8066 8.72177 15.8066 9.05011C15.8066 9.37846 16.0753 9.6471 16.4036 9.6471C16.732 9.6471 17.0006 9.37846 17.0006 9.05011C17.0006 8.72177 16.7369 8.45312 16.4036 8.45312Z" fill="#FF9090"/>
<path d="M16.4036 15.8057C16.2444 15.8057 16.0902 15.8703 15.9808 15.9798C15.8713 16.0892 15.8066 16.2435 15.8066 16.4027C15.8066 16.5569 15.8713 16.7161 15.9808 16.8255C16.0902 16.935 16.2444 16.9996 16.4036 16.9996C16.5628 16.9996 16.717 16.935 16.8265 16.8255C16.9359 16.7161 17.0006 16.5618 17.0006 16.4027C17.0006 16.2435 16.9359 16.0892 16.8265 15.9798C16.7171 15.8703 16.5628 15.8057 16.4036 15.8057Z" fill="#FF9090"/>
<path d="M13.9486 16.9996C14.2769 16.9996 14.5455 16.731 14.5455 16.4027C14.5455 16.0743 14.2769 15.8057 13.9486 15.8057C13.6202 15.8057 13.3516 16.0743 13.3516 16.4027C13.3516 16.736 13.6202 16.9996 13.9486 16.9996Z" fill="#FF9090"/>
<path d="M11.5032 16.9996C11.8316 16.9996 12.1002 16.731 12.1002 16.4027C12.1002 16.0743 11.8316 15.8057 11.5032 15.8057C11.1749 15.8057 10.9062 16.0743 10.9062 16.4027C10.9062 16.736 11.1699 16.9996 11.5032 16.9996Z" fill="#FF9090"/>
<path d="M9.04816 16.9996C9.3765 16.9996 9.64515 16.731 9.64515 16.4027C9.64515 16.0743 9.3765 15.8057 9.04816 15.8057C8.71982 15.8057 8.45117 16.0743 8.45117 16.4027C8.45117 16.736 8.71982 16.9996 9.04816 16.9996Z" fill="#FF9090"/>
<path d="M6.59699 16.9996C6.75619 16.9996 6.91041 16.935 7.01986 16.8255C7.1293 16.7161 7.19398 16.5618 7.19398 16.4027C7.19398 16.2435 7.1293 16.0892 7.01986 15.9798C6.91041 15.8703 6.75619 15.8057 6.59699 15.8057C6.43779 15.8057 6.28357 15.8703 6.17412 15.9798C6.06467 16.0892 6 16.2435 6 16.4027C6 16.5569 6.06467 16.7161 6.17412 16.8255C6.28854 16.935 6.43779 16.9996 6.59699 16.9996Z" fill="#FF9090"/>
<path d="M6.59699 14.5524C6.92533 14.5524 7.19398 14.2837 7.19398 13.9554C7.19398 13.627 6.92533 13.3584 6.59699 13.3584C6.26864 13.3584 6 13.627 6 13.9554C6 14.2837 6.26864 14.5524 6.59699 14.5524Z" fill="#FF9090"/>
<path d="M6.59699 12.0993C6.92533 12.0993 7.19398 11.8306 7.19398 11.5023C7.19398 11.1739 6.92533 10.9053 6.59699 10.9053C6.26864 10.9053 6 11.1739 6 11.5023C6 11.8306 6.26864 12.0993 6.59699 12.0993Z" fill="#FF9090"/>
<path d="M6.59699 9.6471C6.92533 9.6471 7.19398 9.37846 7.19398 9.05011C7.19398 8.72177 6.92533 8.45312 6.59699 8.45312C6.26864 8.45312 6 8.72177 6 9.05011C6 9.37846 6.26864 9.6471 6.59699 9.6471Z" fill="#FF9090"/>
<path d="M22.5 6.33301L20 8.83301L22.5 11.333" stroke="#FF9090" stroke-linecap="round" stroke-linejoin="round"/>
<path d="M20 8.83301H24C26.7615 8.83301 29 11.0715 29 13.833V14.333" stroke="#FF9090" stroke-linecap="round" stroke-linejoin="round"/>
<g clip-path="url(#clip0_2503_800)">
<path d="M13.5 27.667L16 25.167L13.5 22.667" stroke="#FF9090" stroke-linecap="round" stroke-linejoin="round"/>
<path d="M16 25.167L12 25.167C9.2385 25.167 7 22.9285 7 20.167L7 19.667" stroke="#FF9090" stroke-linecap="round" stroke-linejoin="round"/>
</g>
<defs>
<clipPath id="clip0_2503_800">
<rect width="11" height="11" fill="white" transform="translate(17 30) rotate(-180)"/>
</clipPath>
</defs>
</svg>
