<svg width="156" height="25" viewBox="0 0 156 25" fill="none" xmlns="http://www.w3.org/2000/svg">
<path fill-rule="evenodd" clip-rule="evenodd" d="M8.51238 22.0199V19.8569C8.51238 19.6724 8.41544 19.4998 8.25277 19.3891L8.17939 19.3018L8.09083 19.2317C7.81678 19.0908 7.75767 19.0607 7.73018 19.0484L3.43209 16.8346V7.80437L7.54561 5.68845C7.54561 5.68845 7.83382 5.53949 7.84867 5.53134L7.84871 5.53131C7.87324 5.51743 7.87326 5.51742 7.91428 5.49338L12.1958 3.29053L16.311 5.41231C16.5433 5.53224 16.627 5.57476 16.6641 5.59116L20.9602 7.80415V10.7515C20.9602 10.9617 21.086 11.1559 21.2903 11.2611L23.4003 12.3476C23.8409 12.5745 24.3921 12.2913 24.392 11.8379L24.391 6.93264C24.3935 6.66781 24.3159 6.4021 24.1673 6.16855C24.0167 5.93259 23.7992 5.73734 23.5336 5.60038L23.2625 5.46223L18.2913 2.90174L18.0203 2.76554L13.13 0.248024C12.9099 0.108446 12.5959 0.0154424 12.2774 0.00166967C11.9493 -0.0119455 11.6257 0.0578835 11.3397 0.204687L11.0655 0.349379L6.36582 2.76645C6.18467 2.85836 6.18459 2.8584 6.09559 2.90384L6.09547 2.9039L5.82755 3.04361L0.920894 5.56972C0.669219 5.67809 0.427076 5.87628 0.259854 6.11747C0.0908035 6.35786 0 6.63753 0 6.92396V12.3195L0.00129433 17.7064C-0.00162095 17.9705 0.0759168 18.2362 0.224913 18.4704C0.375571 18.7064 0.593577 18.9019 0.85932 19.0385L1.12885 19.1762C4.52237 20.9242 6.08412 21.7286 6.10341 21.7383L6.37361 21.8741L7.5031 22.5201C7.95048 22.7607 8.51238 22.4782 8.51238 22.0199ZM21.9507 13.7876C21.5101 13.5616 20.9599 13.8448 20.9599 14.2977V14.8476L10.0578 9.23571L9.69141 9.04557C9.35949 8.87492 8.94984 8.89277 8.64077 9.08866L8.35073 9.23453L6.74189 10.0594L6.09308 10.3913C5.62131 10.6343 5.47375 11.1662 5.75014 11.591L6.11907 12.1577L6.49131 12.7306C6.76465 13.1506 7.363 13.2816 7.83819 13.0339C8.47106 12.7085 8.49994 12.6937 8.52744 12.6767C8.52923 12.6756 8.53103 12.6744 8.53298 12.6732L9.20095 12.3311L10.5222 13.0114L10.5209 23.5752C10.5209 24.0531 10.9558 24.4407 11.4922 24.4407C11.7383 24.4407 11.9736 24.358 12.1532 24.2097L13.5991 23.1692C13.8518 22.9878 13.9846 22.7074 13.9571 22.4208L13.9591 14.7815L21.7995 18.8302C22.2882 19.081 22.8359 18.912 23.2089 18.4872L24.2036 17.5839C24.3243 17.4737 24.3917 17.3262 24.3917 17.1726V15.3803C24.3917 15.1698 24.2655 14.9753 24.0607 14.8702L21.9507 13.7876Z" fill="black"/>
<path fill-rule="evenodd" clip-rule="evenodd" d="M31.4269 17.2284C31.3033 17.2284 31.195 17.1872 31.1022 17.1051C31.0096 17.0227 30.9629 16.9267 30.9629 16.817V6.11654C30.9629 5.99602 31.0096 5.89716 31.1022 5.82042C31.195 5.74345 31.3033 5.70508 31.4269 5.70508H34.0246C34.1608 5.70508 34.2719 5.74345 34.3587 5.82042C34.4452 5.89716 34.4884 5.99602 34.4884 6.11654V14.6441H40.055C40.1909 14.6441 40.3055 14.685 40.3981 14.7674C40.4909 14.8498 40.5374 14.9513 40.5374 15.072V16.817C40.5374 16.9377 40.4909 17.0366 40.3981 17.1133C40.3055 17.1901 40.1909 17.2284 40.055 17.2284H31.4269ZM41.3722 17.2284C41.2732 17.2284 41.1833 17.1929 41.1031 17.1213C41.0225 17.05 40.9824 16.9704 40.9824 16.8826C40.9824 16.817 40.9888 16.7675 41.001 16.7346L45.3243 6.18245C45.448 5.8642 45.6952 5.70508 46.0664 5.70508H48.961C49.3319 5.70508 49.5795 5.8642 49.7031 6.18245L54.0264 16.7346C54.0389 16.7675 54.045 16.817 54.045 16.8826C54.045 16.9704 54.0047 17.05 53.9243 17.1213C53.8439 17.1929 53.7542 17.2284 53.6553 17.2284H51.243C50.9464 17.2284 50.736 17.1077 50.6124 16.8662L49.9443 15.2695H45.0832L44.4151 16.8662C44.2915 17.1077 44.0811 17.2284 43.7842 17.2284H41.3722ZM45.8613 12.8005H49.164L47.5127 8.60254L45.8613 12.8005ZM55.9374 17.2284C55.8013 17.2284 55.687 17.1901 55.5941 17.1133C55.5015 17.0366 55.4551 16.9377 55.4551 16.817V6.13302C55.4551 6.0125 55.5015 5.91081 55.5941 5.82866C55.687 5.74627 55.8013 5.70508 55.9374 5.70508H58.0342C58.3433 5.70508 58.5662 5.82583 58.702 6.06711L61.8935 11.1374L65.1036 6.06711C65.2394 5.82583 65.4623 5.70508 65.7714 5.70508H67.8682C68.0043 5.70508 68.1186 5.74627 68.2115 5.82866C68.3041 5.91081 68.3505 6.0125 68.3505 6.13302V16.817C68.3505 16.9377 68.3041 17.0366 68.2115 17.1133C68.1186 17.1901 68.0043 17.2284 67.8682 17.2284H65.5116C65.388 17.2284 65.2798 17.1872 65.1869 17.1051C65.0943 17.0227 65.0479 16.9267 65.0479 16.817V10.8246L63.0439 14.0843C62.8831 14.3367 62.6666 14.4628 62.3944 14.4628H61.3926C61.1451 14.4628 60.9286 14.3367 60.7431 14.0843L58.7577 10.8246V16.817C58.7577 16.9377 58.7113 17.0366 58.6187 17.1133C58.5259 17.1901 58.4115 17.2284 58.2754 17.2284H55.9374ZM71.3388 17.2284C71.2151 17.2284 71.1069 17.1872 71.0143 17.1051C70.9214 17.0227 70.875 16.9267 70.875 16.817V6.13302C70.875 6.0125 70.9182 5.91081 71.0047 5.82866C71.0915 5.74627 71.2029 5.70508 71.3388 5.70508H77.0723C78.6432 5.70508 79.8122 5.99037 80.5792 6.5612C81.346 7.13179 81.7296 7.94389 81.7296 8.9975C81.7296 9.52431 81.5718 9.97979 81.2566 10.3637C80.9411 10.7479 80.5914 11.0278 80.208 11.2034C80.7153 11.4008 81.142 11.7273 81.4885 12.1828C81.8347 12.6383 82.008 13.1515 82.008 13.722C82.008 14.8303 81.5964 15.692 80.774 16.3066C79.9515 16.921 78.7732 17.2284 77.2392 17.2284H71.3388ZM76.6824 10.2654C77.1401 10.2654 77.4927 10.1557 77.7402 9.9361C77.9875 9.71648 78.1114 9.43142 78.1114 9.08021C78.1114 8.73984 77.9907 8.46278 77.7495 8.24881C77.5083 8.0346 77.1526 7.92773 76.6824 7.92773H74.3633V10.2654H76.6824ZM76.8496 15.0065C77.3319 15.0065 77.7063 14.8829 77.9721 14.636C78.238 14.3893 78.3712 14.0847 78.3712 13.7224C78.3712 13.3493 78.235 13.0393 77.9628 12.7921C77.6906 12.5455 77.3197 12.4219 76.8496 12.4219H74.3633V15.0065H76.8496ZM84.4543 17.2284C84.3304 17.2284 84.2224 17.1872 84.1295 17.1051C84.0367 17.0227 83.9902 16.9267 83.9902 16.817V6.13302C83.9902 6.0125 84.0337 5.91081 84.1202 5.82866C84.2067 5.74627 84.3182 5.70508 84.4543 5.70508H89.3342C91.1649 5.70508 92.5873 6.09183 93.6019 6.86579C94.6159 7.63929 95.1481 8.75057 95.1972 10.1992C95.2097 10.5174 95.216 10.94 95.216 11.4668C95.216 11.9936 95.2097 12.4104 95.1972 12.7179C95.0736 15.7248 93.15 17.2284 89.4268 17.2284H84.4543ZM89.3361 14.7596C90.1151 14.7596 90.6903 14.5951 91.0617 14.2658C91.4326 13.9367 91.6306 13.4097 91.6552 12.6854C91.6802 12.3671 91.6924 11.9557 91.6924 11.4507C91.6924 10.9458 91.6802 10.5398 91.6552 10.2326C91.6306 9.53019 91.417 9.01162 91.0153 8.67689C90.6131 8.34217 90.0227 8.1748 89.2432 8.1748H87.4805V14.7596H89.3361ZM96.6085 17.2284C96.5095 17.2284 96.4199 17.1929 96.3395 17.1213C96.2588 17.05 96.2188 16.9704 96.2188 16.8826C96.2188 16.817 96.2249 16.7675 96.2373 16.7346L100.56 6.18245C100.684 5.8642 100.932 5.70508 101.303 5.70508H104.197C104.569 5.70508 104.816 5.8642 104.939 6.18245L109.263 16.7346C109.275 16.7675 109.281 16.817 109.281 16.8826C109.281 16.9704 109.241 17.05 109.161 17.1213C109.081 17.1929 108.991 17.2284 108.892 17.2284H106.48C106.183 17.2284 105.972 17.1077 105.849 16.8662L105.181 15.2695H100.319L99.6512 16.8662C99.5278 17.1077 99.3176 17.2284 99.0208 17.2284H96.6085ZM101.1 12.8005H104.402L102.751 8.60254L101.1 12.8005Z" fill="black"/>
<path fill-rule="evenodd" clip-rule="evenodd" d="M113.139 17.3925C113.003 17.3925 112.888 17.3541 112.795 17.2774C112.702 17.2007 112.656 17.1018 112.656 16.981V8.55237H109.391C109.255 8.55237 109.14 8.514 109.047 8.43726C108.955 8.36029 108.908 8.26166 108.908 8.1409V6.29708C108.908 6.17656 108.955 6.07487 109.047 5.99272C109.14 5.91033 109.255 5.86914 109.391 5.86914H119.466C119.602 5.86914 119.716 5.91033 119.809 5.99272C119.902 6.07487 119.948 6.17656 119.948 6.29708V8.1409C119.948 8.26166 119.902 8.36029 119.809 8.43726C119.716 8.514 119.602 8.55237 119.466 8.55237H116.2V16.981C116.2 17.1018 116.154 17.2007 116.061 17.2774C115.968 17.3541 115.854 17.3925 115.718 17.3925H113.139ZM122.044 17.3925C121.92 17.3925 121.812 17.3513 121.719 17.2692C121.627 17.1868 121.58 17.0907 121.58 16.981V6.29708C121.58 6.17656 121.623 6.07487 121.71 5.99272C121.797 5.91033 121.908 5.86914 122.044 5.86914H130.802C130.938 5.86914 131.052 5.91033 131.145 5.99272C131.238 6.07487 131.284 6.17656 131.284 6.29708V7.92693C131.284 8.04769 131.238 8.14632 131.145 8.22306C131.052 8.30003 130.938 8.3384 130.802 8.3384H124.939V10.4291H130.394C130.53 10.4291 130.644 10.4703 130.737 10.5525C130.83 10.6349 130.876 10.7363 130.876 10.8571V12.3551C130.876 12.4759 130.83 12.5773 130.737 12.6597C130.644 12.7419 130.53 12.7833 130.394 12.7833H124.939V14.9232H130.95C131.086 14.9232 131.201 14.9644 131.294 15.0466C131.386 15.129 131.433 15.2304 131.433 15.3512V16.981C131.433 17.1018 131.386 17.2007 131.294 17.2774C131.201 17.3541 131.086 17.3925 130.95 17.3925H122.044ZM138.409 17.5575C137.209 17.5575 136.189 17.404 135.347 17.0966C134.506 16.7894 133.869 16.3834 133.436 15.8782C133.003 15.3738 132.775 14.8249 132.75 14.2321C132.75 14.1335 132.79 14.0511 132.87 13.9852C132.951 13.9195 133.047 13.8866 133.158 13.8866H135.626C135.774 13.8866 135.895 13.9085 135.988 13.9525C136.081 13.9963 136.182 14.073 136.294 14.1827C136.455 14.4461 136.705 14.6629 137.045 14.8331C137.386 15.0033 137.84 15.0883 138.409 15.0883C139.077 15.0883 139.59 14.9976 139.949 14.8168C140.308 14.6356 140.487 14.3861 140.487 14.0676C140.487 13.8374 140.394 13.6479 140.209 13.4998C140.023 13.3515 139.727 13.2197 139.318 13.1046C138.91 12.9895 138.322 12.8605 137.555 12.7179C136.059 12.4545 134.939 12.0538 134.197 11.516C133.455 10.9783 133.084 10.21 133.084 9.21147C133.084 8.53095 133.297 7.92459 133.724 7.39236C134.151 6.85991 134.757 6.44586 135.542 6.1495C136.328 5.85314 137.24 5.70508 138.279 5.70508C139.368 5.70508 140.311 5.87244 141.109 6.20693C141.907 6.5419 142.519 6.95877 142.946 7.45804C143.372 7.95754 143.598 8.44857 143.623 8.93159C143.623 9.03022 143.586 9.11543 143.512 9.18675C143.437 9.25808 143.345 9.29362 143.233 9.29362H140.636C140.364 9.29362 140.153 9.19499 140.005 8.99726C139.93 8.76682 139.739 8.57215 139.43 8.41302C139.121 8.2539 138.737 8.17434 138.279 8.17434C137.76 8.17434 137.357 8.25672 137.073 8.42126C136.789 8.5858 136.646 8.82731 136.646 9.14556C136.646 9.46381 136.832 9.71356 137.203 9.89458C137.574 10.0758 138.267 10.2594 139.281 10.4461C140.444 10.6325 141.369 10.8658 142.055 11.1457C142.742 11.4253 143.249 11.7878 143.577 12.232C143.904 12.6767 144.068 13.2393 144.068 13.9195C144.068 14.6657 143.827 15.3133 143.345 15.862C142.862 16.4107 142.194 16.8304 141.341 17.1213C140.487 17.4123 139.51 17.5575 138.409 17.5575V17.5575ZM149.191 17.3925C149.055 17.3925 148.94 17.3541 148.848 17.2774C148.755 17.2007 148.709 17.1018 148.709 16.981V8.55237H145.443C145.307 8.55237 145.193 8.514 145.1 8.43726C145.007 8.36029 144.961 8.26166 144.961 8.1409V6.29708C144.961 6.17656 145.007 6.07487 145.1 5.99272C145.193 5.91033 145.307 5.86914 145.443 5.86914H155.518C155.654 5.86914 155.769 5.91033 155.861 5.99272C155.954 6.07487 156.001 6.17656 156.001 6.29708V8.1409C156.001 8.26166 155.954 8.36029 155.861 8.43726C155.769 8.514 155.654 8.55237 155.518 8.55237H152.253V16.981C152.253 17.1018 152.206 17.2007 152.113 17.2774C152.021 17.3541 151.906 17.3925 151.771 17.3925H149.191Z" fill="#343534"/>
</svg>
